HIERARCHY
ROOT hips
{
  OFFSET 0 10.6860622 2.3727825e-15
  CHANNELS 6 Xposition Yposition Zposition Yrotation Xrotation Zrotation
  JOINT leftUpperLeg
  {
    OFFSET 0.6642549969 -0.9402397400000004 0
    CHANNELS 3 Yrotation Xrotation Zrotation
    JOINT leftLowerLeg
    {
      OFFSET 0 -3.997221335632195 0
      CHANNELS 3 Yrotation Xrotation Zrotation
      JOINT leftFoot
      {
        OFFSET -0.13777839790000004 -4.6145792000000005 -0.22186036399999998
        CHANNELS 3 Yrotation Xrotation Zrotation
        JOINT leftToes
        {
          OFFSET -0.03777410834999995 -0.9130806927000008 0.85230013
          CHANNELS 3 Yrotation Xrotation Zrotation
          End Site
          {
            OFFSET -0.03777410834999995 -0.9130806927000008 0.85230013
          }
        }
      }
    }
  }
  JOINT rightUpperLeg
  {
    OFFSET -0.6642778626 -0.9402397400000004 0
    CHANNELS 3 Yrotation Xrotation Zrotation
    JOINT rightLowerLeg
    {
      OFFSET 0 -3.997221452859387 0
      CHANNELS 3 Yrotation Xrotation Zrotation
      JOINT rightFoot
      {
        OFFSET 0.1377926176 -4.6145792000000005 -0.22185782299999995
        CHANNELS 3 Yrotation Xrotation Zrotation
        JOINT rightToes
        {
          OFFSET 0.037780746850000047 -0.9130806927000008 0.85230167
          CHANNELS 3 Yrotation Xrotation Zrotation
          End Site
          {
            OFFSET 0.037780746850000047 -0.9130806927000008 0.85230167
          }
        }
      }
    }
  }
  JOINT spine
  {
    OFFSET 0 0.13988381660000015 0
    CHANNELS 3 Yrotation Xrotation Zrotation
    JOINT chest
    {
      OFFSET 0 0.6191039003973773 0
      CHANNELS 3 Yrotation Xrotation Zrotation
      JOINT upperChest
      {
        OFFSET 0 0.9855186130586943 0
        CHANNELS 3 Yrotation Xrotation Zrotation
        JOINT leftShoulder
        {
          OFFSET 0.1807663869 1.5087829790000005 0
          CHANNELS 3 Yrotation Xrotation Zrotation
          JOINT leftUpperArm
          {
            OFFSET 0.5985063006419806 0 0
            CHANNELS 3 Yrotation Xrotation Zrotation
            JOINT leftLowerArm
            {
              OFFSET 2.2993332369501065 0 0
              CHANNELS 3 Yrotation Xrotation Zrotation
              JOINT leftHand
              {
                OFFSET 2.395047042602395 0 0
                CHANNELS 3 Yrotation Xrotation Zrotation
                JOINT leftIndexProximal
                {
                  OFFSET 0.5766295810000004 0.04556643899499946 0.17265095988184
                  CHANNELS 3 Yrotation Xrotation Zrotation
                  JOINT leftIndexIntermediate
                  {
                    OFFSET 0.2957229000000008 -0.019352197700001517 -0.007932640616999987
                    CHANNELS 3 Yrotation Xrotation Zrotation
                    JOINT leftIndexDistal
                    {
                      OFFSET 0.19008243099999922 -0.012484908149998475 -0.002786250786000012
                      CHANNELS 3 Yrotation Xrotation Zrotation
                      End Site
                      {
                        OFFSET 0.19008243099999922 -0.012484908149998475 -0.002786250786000012
                      }
                    }
                  }
                }
                JOINT leftMiddleProximal
                {
                  OFFSET 0.5834975091000001 0.0524350405149987 0.02204081888183999
                  CHANNELS 3 Yrotation Xrotation Zrotation
                  JOINT leftMiddleIntermediate
                  {
                    OFFSET 0.33880573540000003 -0.019871473270000717 -0.00000971183179999946
                    CHANNELS 3 Yrotation Xrotation Zrotation
                    JOINT leftMiddleDistal
                    {
                      OFFSET 0.20676022730000088 -0.012221336379999448 0.0001471936708000235
                      CHANNELS 3 Yrotation Xrotation Zrotation
                      End Site
                      {
                        OFFSET 0.20676022730000088 -0.012221336379999448 0.0001471936708000235
                      }
                    }
                  }
                }
                JOINT leftLittleProximal
                {
                  OFFSET 0.5344154683999995 -0.012880921405001189 -0.24414037221816004
                  CHANNELS 3 Yrotation Xrotation Zrotation
                  JOINT leftLittleIntermediate
                  {
                    OFFSET 0.21758961730000093 -0.011650919939999227 0.011893592810000034
                    CHANNELS 3 Yrotation Xrotation Zrotation
                    JOINT leftLittleDistal
                    {
                      OFFSET 0.1475273964999999 -0.008152365682999818 0.006001092492999946
                      CHANNELS 3 Yrotation Xrotation Zrotation
                      End Site
                      {
                        OFFSET 0.1475273964999999 -0.008152365682999818 0.006001092492999946
                      }
                    }
                  }
                }
                JOINT leftRingProximal
                {
                  OFFSET 0.5799399463000003 0.026911854694997794 -0.12150566991816003
                  CHANNELS 3 Yrotation Xrotation Zrotation
                  JOINT leftRingIntermediate
                  {
                    OFFSET 0.26167887460000006 -0.013480186499999602 0.010996293000000053
                    CHANNELS 3 Yrotation Xrotation Zrotation
                    JOINT leftRingDistal
                    {
                      OFFSET 0.17667108799999987 -0.008990287899999228 0.0055541023999999065
                      CHANNELS 3 Yrotation Xrotation Zrotation
                      End Site
                      {
                        OFFSET 0.17667108799999987 -0.008990287899999228 0.0055541023999999065
                      }
                    }
                  }
                }
                JOINT leftThumbProximal
                {
                  OFFSET 0.11018806699999972 -0.09448718900500053 0.17047963138184
                  CHANNELS 3 Yrotation Xrotation Zrotation
                  JOINT leftThumbIntermediate
                  {
                    OFFSET 0.31062601459999983 -0.08126270900000132 0.15443142000000007
                    CHANNELS 3 Yrotation Xrotation Zrotation
                    JOINT leftThumbDistal
                    {
                      OFFSET 0.21627175790000086 -0.08833193599999878 0.018771167799999988
                      CHANNELS 3 Yrotation Xrotation Zrotation
                      End Site
                      {
                        OFFSET 0.21627175790000086 -0.08833193599999878 0.018771167799999988
                      }
                    }
                  }
                }
              }
            }
          }
        }
        JOINT neck
        {
          OFFSET 0 1.5463305265074576 0
          CHANNELS 3 Yrotation Xrotation Zrotation
          JOINT head
          {
            OFFSET 0 0.8456443600000344 0
            CHANNELS 3 Yrotation Xrotation Zrotation
            JOINT leftEye
            {
              OFFSET 0.30408573140000006 0.5104519199999995 0.1276382305
              CHANNELS 3 Yrotation Xrotation Zrotation
              End Site
              {
                OFFSET 0.30408573140000006 0.5104519199999995 0.1276382305
              }
            }
            JOINT rightEye
            {
              OFFSET -0.30409491089999996 0.5104519199999995 0.1276379445
              CHANNELS 3 Yrotation Xrotation Zrotation
              End Site
              {
                OFFSET -0.30409491089999996 0.5104519199999995 0.1276379445
              }
            }
            JOINT jaw
            {
              OFFSET -3.155239131000001e-7 -0.11984121820000082 0.60178107
              CHANNELS 3 Yrotation Xrotation Zrotation
              End Site
              {
                OFFSET -3.155239131000001e-7 -0.11984121820000082 0.60178107
              }
            }
          }
        }
        JOINT rightShoulder
        {
          OFFSET -0.1807303465 1.5087829790000005 0
          CHANNELS 3 Yrotation Xrotation Zrotation
          JOINT rightUpperArm
          {
            OFFSET -0.5985063796536958 0 0
            CHANNELS 3 Yrotation Xrotation Zrotation
            JOINT rightLowerArm
            {
              OFFSET -2.2993322059002854 0 0
              CHANNELS 3 Yrotation Xrotation Zrotation
              JOINT rightHand
              {
                OFFSET -2.395045314457259 0 0
                CHANNELS 3 Yrotation Xrotation Zrotation
                JOINT rightIndexProximal
                {
                  OFFSET -0.5764487688300002 0.0441371204405987 0.17361932004999997
                  CHANNELS 3 Yrotation Xrotation Zrotation
                  JOINT rightIndexIntermediate
                  {
                    OFFSET -0.29573011380000047 -0.01934826376999843 -0.007698921482999974
                    CHANNELS 3 Yrotation Xrotation Zrotation
                    JOINT rightIndexDistal
                    {
                      OFFSET -0.19008373999999884 -0.012503266380000655 -0.0026365778999999897
                      CHANNELS 3 Yrotation Xrotation Zrotation
                      End Site
                      {
                        OFFSET -0.19008373999999884 -0.012503266380000655 -0.0026365778999999897
                      }
                    }
                  }
                }
                JOINT rightMiddleProximal
                {
                  OFFSET -0.5834852037300005 0.05211639405060153 0.02307162440000001
                  CHANNELS 3 Yrotation Xrotation Zrotation
                  JOINT rightMiddleIntermediate
                  {
                    OFFSET -0.33880114510000003 -0.019952774050000954 0.0002455003561999819
                    CHANNELS 3 Yrotation Xrotation Zrotation
                    JOINT rightMiddleDistal
                    {
                      OFFSET -0.20675694929999955 -0.012273788999999091 0.00030209124000002766
                      CHANNELS 3 Yrotation Xrotation Zrotation
                      End Site
                      {
                        OFFSET -0.20675694929999955 -0.012273788999999091 0.00030209124000002766
                      }
                    }
                  }
                }
                JOINT rightLittleProximal
                {
                  OFFSET -0.5346811737299992 -0.011214256288399227 -0.24363941305000003
                  CHANNELS 3 Yrotation Xrotation Zrotation
                  JOINT rightLittleIntermediate
                  {
                    OFFSET -0.21757715980000092 -0.011771559690000988 0.01201554387
                    CHANNELS 3 Yrotation Xrotation Zrotation
                    JOINT rightLittleDistal
                    {
                      OFFSET -0.1475201849000004 -0.00822055339600003 0.006082065407000015
                      CHANNELS 3 Yrotation Xrotation Zrotation
                      End Site
                      {
                        OFFSET -0.1475201849000004 -0.00822055339600003 0.006082065407000015
                      }
                    }
                  }
                }
                JOINT rightRingProximal
                {
                  OFFSET -0.5800810755299999 0.027657985680600072 -0.12066365025000003
                  CHANNELS 3 Yrotation Xrotation Zrotation
                  JOINT rightRingIntermediate
                  {
                    OFFSET -0.26166445029999974 -0.013623118409999302 0.011164098990000045
                    CHANNELS 3 Yrotation Xrotation Zrotation
                    JOINT rightRingDistal
                    {
                      OFFSET -0.17666387530000027 -0.009072900100000503 0.005668185599999959
                      CHANNELS 3 Yrotation Xrotation Zrotation
                      End Site
                      {
                        OFFSET -0.17666387530000027 -0.009072900100000503 0.005668185599999959
                      }
                    }
                  }
                }
                JOINT rightThumbProximal
                {
                  OFFSET -0.10997596379000074 -0.09577489355940072 0.16989765924999997
                  CHANNELS 3 Yrotation Xrotation Zrotation
                  JOINT rightThumbIntermediate
                  {
                    OFFSET -0.31036620999999986 -0.08229339117999834 0.15440884469999996
                    CHANNELS 3 Yrotation Xrotation Zrotation
                    JOINT rightThumbDistal
                    {
                      OFFSET -0.21631306399999906 -0.08825326400000111 0.018656797720000014
                      CHANNELS 3 Yrotation Xrotation Zrotation
                      End Site
                      {
                        OFFSET -0.21631306399999906 -0.08825326400000111 0.018656797720000014
                      }
                    }
                  }
                }
              }
            }
          }
        }
      }
    }
  }
}
MOTION
Frames: 7
Frame Time: 0.03333333333333333
0 11.682712981546562 0 0 0 0 0 0 -5.826343164929014 -0.3712483961610101 -3.6333298826370974 5.838118207697276 0 0 0 0 0 0 0 0 5.826343164929014 0.3712483961610101 -3.6333298826370974 -5.838118207697276 0 0 0 0 0 0 0 -4.610651315171937 0 0 3.0831277533083026 0 0 0 0 0 1.5275236235667615 0 0 0 0 0 0 0 0 0 0 0 0 0 0 0 0 0 0 0 0 0 0 0 0 0 0 0 0 0 0 0 0 0 0 0 0 0 0 0 0 0 0 0 0 0 0 0 0 0 0 0 0 0 0 0 0 1.5275236235667615 0 0 0 0 0 0 0 0 0 0 0 0 0 0 1.5275236235667615 0 0 0 0 0 0 0 0 0 0 0 0 0 0 0 0 0 0 0 0 0 0 0 0 0 0 0 0 0 0 0 0 0 0 0 0 0 0 0 0 0 0 0 0 0 0 0 0 0 0 0 0 0 0 0
0 -9.591126106628336 -1.8727586043542412 -36.58411639843945 -46.999819608443765 -62.3934800804057 56.589112409776966 -36.18147912484631 -27.07213792216163 0.18778082002994625 48.075380456033564 10.303105472953224 -0.3059008434132642 22.101842126305446 -7.342465487291872 0 0 0 -81.56386409153875 -44.04868926160105 46.39963375383687 -149.18705271740473 80.56613959548912 -150.3256912467041 0.08340417121038161 24.122152310650293 6.409750995368087 0 0 0 16.16454288785452 0.41550947570187147 14.875615368253026 15.843623041145834 14.382091243459143 22.748567831120468 0 0 0 12.373802693870038 -29.2364770149421 36.40709029640119 -18.74271018029461 -41.64154685319481 -30.772989907098992 -118.92438548799973 33.09909678810347 26.019913939020363 12.643112580022173 -8.673983478357322 33.4743657922016 0 0 0 0 0 0 0 0 0 0 0 0 0 0 0 0 0 0 0 0 0 0 0 0 0 0 0 0 0 0 0 0 0 0 0 0 0 0 0 0 0 0 0 0 0 -1.6078707490282698 13.466538566937201 -26.406218327922197 -10.192083944353266 -13.605541832523866 28.50099338243633 0 0 0 0 0 0 0 0 0 -12.05383745853882 -4.698168705203465 7.010891602710251 32.33316348192043 43.88734554750545 17.10395415303401 27.747397354220325 -14.270424187374106 3.1076491738870566 8.032488951467485 5.959269019816099 -36.72821753608852 0 0 0 0 0 0 0 0 0 0 0 0 0 0 0 0 0 0 0 0 0 0 0 0 0 0 0 0 0 0 0 0 0 0 0 0 0 0 0 0 0 0 0 0 0
0 -9.591126106628336 -1.8727586043542412 -36.58411639843945 -46.999819608443765 -62.3934800804057 56.589112409776966 -36.18147912484631 -27.07213792216163 0.18778082002994625 48.075380456033564 10.303105472953224 -0.3059008434132642 22.101842126305446 -7.342465487291872 0 0 0 -81.56386409153875 -44.04868926160105 46.39963375383687 -149.18704824382874 80.56613959548912 -150.32568672099075 0.08340417121038161 24.122152310650293 6.409750995368087 0 0 0 16.16454288785452 0.41550947570187147 14.875615368253026 15.843623041145834 14.382091243459143 22.748567831120468 0 0 0 12.373802693870038 -29.2364770149421 36.40709029640119 -18.74271018029461 -41.64154685319481 -30.772989907098992 -118.92438548799973 33.09909678810347 26.019913939020363 12.643112580022173 -8.673983478357322 33.4743657922016 0 0 0 0 0 0 0 0 0 0 0 0 0 0 0 0 0 0 0 0 0 0 0 0 0 0 0 0 0 0 0 0 0 0 0 0 0 0 0 0 0 0 0 0 0 -1.6078707490282698 13.466538566937201 -26.406218327922197 -10.353622815712944 -13.314226316492109 28.46532167875139 0 0 0 0 0 0 0 0 0 -12.05383745853882 -4.698168705203465 7.010891602710251 31.946050843334195 43.706403622429015 16.867654071876363 28.419087985667023 -14.280855843816054 3.1453388311761756 7.857799887038002 6.286240521909368 -36.37666517708156 0 0 0 0 0 0 0 0 0 0 0 0 0 0 0 0 0 0 0 0 0 0 0 0 0 0 0 0 0 0 0 0 0 0 0 0 0 0 0 0 0 0 0 0 0
0 -9.591126106628336 -1.8727586043542412 -36.58411639843945 -46.999819608443765 -62.3934800804057 56.58912003731491 -36.18147912484631 -27.072145498965654 0.18778011480128048 48.075390678537715 10.3031060440961 -0.3058997779581935 22.101842126305446 -7.342465030326091 0 0 0 -81.56386409153875 -44.04868926160105 46.39963375383687 -149.18705271740473 80.56613959548912 -150.3256912467041 0.08340417121038161 24.122152310650293 6.4097519249821335 0 0 0 16.16454288785452 0.41550947570187147 14.875615368253026 15.843623041145834 14.382091243459143 22.748567831120468 0 0 0 12.37380173818591 -29.2364750581175 36.40709029640119 -18.74271018029461 -41.64154685319481 -30.772989907098992 -118.92438548799973 33.09909678810347 26.019913939020363 12.643114265442454 -8.673985205660706 33.4743657922016 0 0 0 0 0 0 0 0 0 0 0 0 0 0 0 0 0 0 0 0 0 0 0 0 0 0 0 0 0 0 0 0 0 0 0 0 0 0 0 0 0 0 0 0 0 -1.607871626593439 13.46653944484805 -26.40622147317295 -10.515289033816071 -13.02276666468579 28.42882310074862 0 0 0 0 0 0 0 0 0 -12.053838296303192 -4.698168705203465 7.01089287808044 31.56090829371157 43.52420231063606 16.633622886308956 29.09249106921982 -14.291750529624446 3.182997569617888 7.684774739871391 6.614744333056968 -36.02539448501577 0 0 0 0 0 0 0 0 0 0 0 0 0 0 0 0 0 0 0 0 0 0 0 0 0 0 0 0 0 0 0 0 0 0 0 0 0 0 0 0 0 0 0 0 0
0 -9.591126106628336 -1.8727586043542412 -36.58411639843945 -46.999819608443765 -62.3934800804057 56.58911827139584 -36.18147912484631 -27.072139805896185 0.18778082002994625 48.075380456033564 10.303105472953224 -0.3059008434132642 22.101842126305446 -7.342465487291872 0 0 0 -81.56386831363056 -44.04868451016019 46.39963375383687 -149.18704824382874 80.56613959548912 -150.32568672099075 0.08340417121038161 24.12215418157367 6.409750995368087 0 0 0 16.16454452793905 0.4155087019491582 14.875617018616015 15.843623041145834 14.382091243459143 22.748567831120468 0 0 0 12.373802693870038 -29.2364770149421 36.40709029640119 -18.74271018029461 -41.64154685319481 -30.772989907098992 -118.92438548799973 33.09909678810347 26.019913939020363 12.643112580022173 -8.673983478357322 33.4743657922016 0 0 0 0 0 0 0 0 0 0 0 0 0 0 0 0 0 0 0 0 0 0 0 0 0 0 0 0 0 0 0 0 0 0 0 0 0 0 0 0 0 0 0 0 0 -1.607871626593439 13.466537689026353 -26.40622147317295 -10.677092640223698 -12.731175993761894 28.391499481299768 0 0 0 0 0 0 0 0 0 -12.05383745853882 -4.698168705203465 7.010891602710251 31.17774113953811 43.34076995608085 16.40185281164848 29.76753589473697 -14.303096858350845 3.2206118010803966 7.513425573522804 6.944756402475301 -35.67439470058883 0 0 0 0 0 0 0 0 0 0 0 0 0 0 0 0 0 0 0 0 0 0 0 0 0 0 0 0 0 0 0 0 0 0 0 0 0 0 0 0 0 0 0 0 0
0 -9.591126106628336 -1.8727586043542412 -36.58411639843945 -46.999819608443765 -62.3934800804057 56.58911594161502 -36.18148335589341 -27.072141731496544 0.18778082002994625 48.075380456033564 10.303105472953224 -0.3059008434132642 22.101842126305446 -7.342465487291872 0 0 0 -81.56386761656161 -44.04868926160105 46.3996371946759 -149.18705271740473 80.56613959548912 -150.3256912467041 0.08340417121038161 24.12215418157367 6.409750995368087 0 0 0 16.16454452793905 0.4155096624697677 14.875617018616015 15.843624736969778 14.382090362063298 22.74856945678567 0 0 0 12.373802693870038 -29.2364770149421 36.40709029640119 -18.74271018029461 -41.64154685319481 -30.772989907098992 -118.92438191990382 33.099100864721926 26.019917559075125 12.643114265442454 -8.673985205660706 33.4743657922016 0 0 0 0 0 0 0 0 0 0 0 0 0 0 0 0 0 0 0 0 0 0 0 0 0 0 0 0 0 0 0 0 0 0 0 0 0 0 0 0 0 0 0 0 0 -1.607871626593439 13.466537689026353 -26.40622147317295 -10.839030837657614 -12.439449843850513 28.353333925966176 0 0 0 0 0 0 0 0 0 -12.05383745853882 -4.698168705203465 7.010891602710251 30.796550481448286 43.156125192864934 16.172351543745442 30.444196992541237 -14.314900185615942 3.25817470558547 7.3437668587322005 7.276252060293111 -35.3236650454652 0 0 0 0 0 0 0 0 0 0 0 0 0 0 0 0 0 0 0 0 0 0 0 0 0 0 0 0 0 0 0 0 0 0 0 0 0 0 0 0 0 0 0 0 0
0 -9.591126106628336 -1.8727586043542412 -36.58411938290059 -46.9998246159092 -62.39347997864673 56.589112409776966 -36.18147912484631 -27.07213792216163 0.18778082002994625 48.075380456033564 10.303105472953224 -0.3058997779581935 22.101842126305446 -7.342465030326091 0 0 0 -81.56387172908835 -44.04868926160105 46.39964391222355 -149.18704824382874 80.56613959548912 -150.32568672099075 0.08340417121038161 24.12215418157367 6.4097519249821335 0 0 0 16.16454452793905 0.4155096624697677 14.875617018616015 15.843624736969778 14.382093006250845 22.748570820086265 0 0 0 12.373802693870038 -29.2364770149421 36.40709029640119 -18.742713812400478 -41.64154685319481 -30.772989907098992 -118.92438191990382 33.099100864721926 26.019917559075125 12.643111737312024 -8.673984342009012 33.47436867380197 0 0 0 0 0 0 0 0 0 0 0 0 0 0 0 0 0 0 0 0 0 0 0 0 0 0 0 0 0 0 0 0 0 0 0 0 0 0 0 0 0 0 0 0 0 -1.6078707490282698 13.46653944484805 -26.406219900547594 -11.001115531785361 -12.147608199279814 28.31433596633237 0 0 0 0 0 0 0 0 0 -12.053838296303192 -4.698168705203465 7.010891602710251 30.417307733761003 42.97025841863485 15.94509730761058 31.122428408839255 -14.32716146514619 3.295679488850644 7.175810737206064 7.609205147778772 -34.97319875482786 0 0 0 0 0 0 0 0 0 0 0 0 0 0 0 0 0 0 0 0 0 0 0 0 0 0 0 0 0 0 0 0 0 0 0 0 0 0 0 0 0 0 0 0 0
